<svg id="Layer_1" data-name="Layer 1" xmlns="http://www.w3.org/2000/svg" viewBox="0 0 1945 1735.07"><path d="M581.23,1545c-74.08-58.27-153.12-114.12-207.11-192.8C260.45,1213.42,173,1052.8,113.14,884,77,774.19,64.59,656.5,17.94,551c-48.73-76.66,8.39-160.41,92.36-184.77,37.36-7.2,103.09-42.47,23.75-17.23-71.15,52.16-78-47.41-5.06-53.72,49.78-6.6,68.1-47.33,51.06-84-53.46-34.87,129.58-73.13,37.47-125.15C121.64-17.38,351.7-37.3,294.93,80.24,281.36,170.61,455.74,63.64,415.24,168c41.14,50.14,154,11.44,151.19,81.73,59.91,4.12,80.48,54.5,136.67,58.37,58.32,26.34,163.95,47.05,183.77,112.73C829.05,466.61,695.2,326.31,688.74,453c17.49,187.19,13,380,81.49,558.26,32.38,107.92,110.92,192.87,181.82,276.94,67.87,82.31,159.78,140.3,253.48,189.08,82.17,38.75,170.76,64.43,260.33,80.58,36.32-27.78,100.45-131.06,157.08-87.54,2.74,49-112.41,102.35-5.4,96.93,62.9-19,106.47,48.58,158.23-12.37,47.7,56.49,198.22-36.07,164.3,79.39-45.91,29.62-112.83,11.72-158.78,52.47-75.76-37.86-136.09,33.83-220,24.79-93.15,16.69-188,23.4-282.39,23.54-155-12.23-313.19-17.38-460.6-71.34-83.06-24.13-164.09-71.44-237.08-118.74Zm130.86,56.74c81.08,35,160.38,72,249.26,83.16,141,19.58,286.6,49.78,428.09,22.27-64-28.91-130.26,11.22-194-20.67-76.51,16.44-158.62-4.22-236.44-14.41-88.43-39.39-183.9-66.47-266.73-117.65-103.54-37.8,53.51,48.49,81.48,55.51,64.69,36.69-71.15-18.85-90.34-34.1-54.18-30.4-61.08-24-5.34,6.81,11.22,6.57,22.3,13.47,34.07,19.08Zm-154.31-109c78.6,29.12-.35-55.25-36.31-50.37-16-27.68-61-45.17-29.22-60-57.08,19.83-59.81-75.37-86.63-61.75-60.42-19.08-23.51-86.65-95.5-128.17-6.56-43.73-71.49-81.64-92.16-147.57-9.14-33.78-73.38-130.7-33.93-40.5,33.58,86.84,92.65,161.28,141.84,235.55,38.16,70.74,83.27,144.72,152.78,188.84,23.45,22.51,46,56.93,79.13,64ZM331.44,1244.12C334.16,1232.25,345.8,1269.8,331.44,1244.12Zm320.49,283.43C669.32,1519.76,626.89,1517.72,651.93,1527.55Zm42.63,15.56C690.14,1521.64,675.08,1555.13,694.56,1543.11ZM748,1565.38C773.35,1541.16,708.76,1550.1,748,1565.38Zm91.51,51C854.93,1593.58,790,1607.79,839.48,1616.38Zm-175.72-122.5C703.19,1468.34,612.74,1493.52,663.76,1493.88Zm40,20C702.65,1500.38,689.54,1519.9,703.8,1513.85ZM904,1638.79c32.19,20.33,188,44.52,90.43,8.34C978,1650.57,813.54,1600.58,904,1638.79ZM586.21,1391.28C583.08,1377.78,536.21,1376.33,586.21,1391.28Zm93.14,54.36C703.64,1428.7,629,1432.58,679.35,1445.64Zm78.4,48C792.57,1480.57,701.32,1480.52,757.75,1493.68ZM548.25,1350c37.76,29,152.33,3.72,57.82-17.29-43-22.9-139.85-38.59-73.81,13.82Zm262.62,160.27C826.61,1483.49,744.88,1495,810.87,1510.27Zm-79.8-63.4c92.31,26.09-77.65-58.43-22.79-9.64l12.18,5.52Zm160,92.46C978.5,1540.17,812.06,1527.27,891.06,1539.33ZM514.62,1299.41C511.19,1283.12,493.06,1300.76,514.62,1299.41ZM1039,1622.3C1041.29,1592.89,1010.44,1644.21,1039,1622.3Zm-375.1-231.52C658.54,1375.28,636.54,1390.14,663.86,1390.78Zm-141-101.59C573.1,1286.16,454.15,1267.08,522.91,1289.19Zm-167-107.92C349.68,1157.18,301.33,1138,355.93,1181.27Zm438.34,278.18C785.08,1449,789.94,1461.73,794.27,1459.45Zm272.8,167.43C1066.23,1610.82,1052.22,1632.93,1067.07,1626.88ZM770.13,1434.51C775.05,1413.84,727.31,1428.24,770.13,1434.51ZM566.88,1305.68C604.24,1301.7,507,1280.44,566.88,1305.68Zm343.81,213.64C968.91,1496.26,854,1508.08,910.69,1519.32ZM731.88,1398c67.06,8.63-79.84-45.67-14.76-4.88ZM965,1541.27c62.66-37.4,42,87.69,106.29,10.58,63.38-46.3-54.76,57.24,23.34,8.25,56.54-37.81,140,17.93,192.72,36.07,37.89-1.84,74.77,32.79,113.66,11.71,74.82-20.17-146.36-29.89-88.39-65.62-68.45,19.93-119-23.75-152.71-67.62-76.81-17.74-165.59-57-203.94-125-15.65-25.48,22.56,3.63-13.51-38.1-46.26-41.15-69.35-87.9-100.41-137.92-37.12-19.78-41.48-78.06-45.21-1.93.3-48-44.82-80.4-55.85-67-.2-46.26,48.3-23.06,14.36-57.28-7.29-48-31.35-97.92-38.56-152.08-11.21-26.08-1.59-82-38.34-22.91-13.37,62.46-4.42-76.7,16.39-30.84,27.33-46.8-9.84-41.3-11.33-34.83,17.79-39.49,11.28-95.54-4.67-74.18,9.49-41.88,15-154.11-14.15-134.19C682.34,554.6,698.2,398,621.38,457.72c-31.1.44-85,11.28-110.44,23.95,79.84,44-8.05,15.89-40.59,8.89-4.23,40.74-36.42,23.15-76.66,23.54,64.29,7.95-31.3,65.72-68.11,43.28-47.89,22.85,41.29,80,.95,97.67,5,26.58-73.34-9.63-67.22,51.87-46.46-19.58-6.36,72.93,16.89,41.64,79,21.41,55.64,70.15,57.63,116.49-12.87,27-63.6-63.44-11.29-59.26-41.28-67-45.64-24.25-79.93,6.9-8,2.24,87.44,44.31,27.58,65.08,52.66,8.16,54.2,54.26,64.94,83.42,31.64,33,25.12-36.43,63,3.23-24-35.33-127-99.53-44.07-78.94-.45-35.52-15-64.2,10.43-63.5,25.19-45.56-26.38,112.38,30.36,54.46,15.69-6.86,19.62-45.61,47.84,3.67,41,40.35,14.81,69.54-43,32.59,10.33,35.12,77.35,47.64,64.73,102.54,13.35,48.3,32,30.5,48.33,27.72,12.77,46.9,20,12.42,20.63-9.94,58.47,12.54,44.76,47.11,63.09,71.25,40.29,18.18-57.68-123.26,11.48-42.53,72.77,65.73,27.32,93.15-38,82.63,41.33-3.35,54.63,55.89,106.37,53.8,47.14,22.45,79.09,108.6-2.19,72.73-28.17-25.44-128-56.79-46.45-8.44,75.21,34.87,135,55.69,207.61,99.47,51.92,37.06,74.37,79.52,94,87.93-43.66,20.86-131.54-16.65-66.27-28.12-40.74-7.41-86.54-28-47.55,22.7,33.19,27.73,117.5,24.79,132.66,27.92-12.82,28.22-34.82,30.46.49,32.64-39.4,21,12.68,24.3,16.3,36.27Zm-80.58-227.59c-24-25.09-30.2-72-4.27-31.21C893.44,1287.84,922.71,1359.24,884.39,1313.68Zm262.48,166.73C1161.82,1479.42,1147.31,1491.78,1146.87,1480.41ZM846.55,1252.18C845.59,1214.27,855.18,1281.43,846.55,1252.18Zm-26.09-35.08C790.26,1158.82,858.46,1233.59,820.46,1217.1ZM504.28,998.9C522,994.17,513,1029.19,504.28,998.9Zm251.64,136.37C766.8,1094.38,768.69,1169.56,755.92,1135.27ZM578.16,1011.66C565.65,989.11,604.35,1032.83,578.16,1011.66Zm152.52,48.89c-28.56-64,20.27-35,6.36,10.48ZM467.62,885.12c-12.76-21-33.88-82.62-27.08-101.44,6.11,30.65,65.14,131.85,28.91,41.93-40-75.36,47.85,24.44,56.89,43.27,4.23,18.69-24.69-5.11-5.12,38.75C485.51,857.7,500.15,935.21,467.62,885.12Zm-81.28-56C389.67,780.25,404.93,862.57,386.34,829.09Zm36.57,12.61C440.35,804.85,452.46,893.07,422.91,841.7Zm-88-68.05c-30.26-30.12-52.17-57.84,1.44-18.69,20.62.79-45.9-63,5-20.27,53.45,9.74,26.37,87.7-6.41,39Zm46.2-1.2C398.72,755,390.47,789.59,381.12,772.45Zm28.47,9.09C382.91,731.61,441.93,802.51,409.59,781.54Zm-56.53-54c-88-78.36,110.53,40.93,14.36,14.5ZM605.18,874c-38.1-22.81-10.13-160.72,2.89-66.42,37-12-2.05,48.74,25.53,48.14C629.28,894,616.92,907.79,605.18,874Zm93.26,55.14C702.16,887.57,706.29,957.57,698.44,929.14Zm-16.19-16C686.42,895.36,682.64,934,682.25,913.09Zm-312-211.29c-56.53-78,164.3,78.89,36.22,19.78C393.14,718.05,377,716.81,370.29,701.8ZM549.89,797C544.53,731.32,561.82,807.87,549.89,797Zm136.32,87.47C696.74,847.07,687,909.23,686.21,884.47ZM379,672c33.59-7.2,139.2,59,42.22,18.88C410.44,679,387.44,684.41,379,672ZM667.48,815.82c3.59-67.16,20.09-40.09.15,9.64l-.15-9.65ZM404,648.65c13.7-20.08-36.38-90.77,7.19-25.35,18.84,15,54.5,25.05,23,31.35C483.71,698.33,422.11,666.48,404,648.65ZM653.22,794.86C662.67,718.35,661.57,839.67,653.22,794.86ZM375.36,578C385.84,573.52,380.92,592,375.36,578Zm65,38.7C457.12,581.57,471.24,655.84,440.39,616.7Zm183.37,102C623.61,705.23,627.23,738.32,623.76,718.69ZM613.12,695.2C587.69,632.4,636.83,728.43,613.12,695.2ZM597.52,654C593.26,628.07,612,686.6,597.52,654ZM623,612.67C605.47,581.91,645,477,649.45,542.08c-18.44,50.67-5.32,79,7.49,11,23.76-53.46-5.11,105.58-34,59.56Zm26.13-155.94C656.7,447.38,650.79,468,649.09,456.73Zm-43.65,860.13C595.09,1307.81,606.76,1322.58,605.44,1316.86Zm89.91,45.46c50,12.87,49.78-7.76,4.56-13.92-24.29-22.59-101-46.59-32.33-2.78C672.1,1357.15,686.46,1356.85,695.35,1362.32Zm-177.55-118c27.51,20.58,103.77,58.23,39.24,7.86,21.76-25.3-41.64-38.76-20.61-55.69-53.51-32.75-42.25-29.82-4.72-28.77-64.29-28.78,9.28-26.59,5.81-41.33-24.79-4.88-123.17-43.74-65.29,3.17-58.82-30-14,11.18-31.79,6.85-60.18-16.39,53.56,45.82-9.55,30.37,34.49,27.32,92.86,70.05,14.56,28.9-10.28,14.86,56.05,37.37,72.34,48.64Zm94,54.05C726.15,1335.24,555.74,1253.36,611.83,1298.42Zm481.42,291.63C1094.74,1567.35,1077.64,1609.43,1093.25,1590.05Zm49.48,20.82c26.38-25.53,1.1,40.74,43.72-6.25.44-33.64-1.29-53.51-49-12.63-13.18,7.31-19,38.25,5.26,18.89ZM357.27,1117.6C349.17,1085.75,300.48,1085.89,357.27,1117.6Zm52.81,34.62C390.45,1119.68,340.07,1122.76,410.08,1152.22ZM710.7,1333.5c29.37,26.09,134.79,19.13,35.63,3.24C731.67,1315,653.13,1320.24,710.7,1333.5Zm413.2,255.23C1169.06,1550.82,1080.14,1605.62,1123.9,1588.73Zm93.95,64.53C1218.14,1641.09,1198.38,1658.58,1217.85,1653.26Zm.15-17C1268,1583.26,1169.56,1639.35,1218,1636.22ZM227.3,1008.79C184.68,948,200.82,920.65,159.69,871c-7.81-38-70.55-124.15-32.44-32.89,34.87,53.42,45.2,136.08,100.06,170.72Zm975,610.58C1294.37,1559.9,1164.55,1593.49,1202.3,1619.37Zm70.25,27.52C1318.66,1607.34,1243.39,1638.64,1272.55,1646.89ZM341.61,1050.36C354.79,1030.74,307.54,1047.83,341.61,1050.36Zm916.28,577.75c44.61-28.76-10.28-24.34-8.09,2.63ZM652.37,1246.46C650.84,1227,628.78,1248.1,652.37,1246.46ZM689.78,1268C677.86,1243.93,671.5,1271.75,689.78,1268Zm639.7,379.57c57.18-41.24-34.62-7.91-12,7.85Zm-21.9-10.58C1354.18,1598,1258.44,1654.25,1307.58,1637Zm111.87,74.47C1450.71,1690.51,1381.45,1704.67,1419.45,1711.43ZM370.29,1036.21c41.88,9.38,167.47,103.18,93.4,6.51-37.95-11.23-15.2-104-53.9-87.6,26,43.42,21.35,61.85-33.2,34.54-68.5-33.5-38.5,16.54-25.08,30.36-18.29,4.17,24.14,15.84,18.77,16.18ZM179.36,885.43c7.5-31.06-69.11-170.71-36.17-70C155.06,836.54,153.83,876.53,179.36,885.43Zm350.45,216.06C508.2,1083.46,528.77,1098.9,529.81,1101.49Zm53.11,12.38C582.92,1081,524.2,1100.5,582.92,1113.87Zm460.55,290.28C1034.68,1381.69,1008.75,1403.65,1043.47,1404.15Zm22.11,16.14C1062.29,1407.72,1052.8,1422.73,1065.58,1420.29Zm182.53,115C1265.65,1522.34,1226.19,1533.62,1248.11,1535.3ZM274.7,909.77C324.92,890.34,220.89,895.91,274.7,909.77Zm728.22,458.75C1002.34,1336,970.88,1376.63,1002.92,1368.52Zm-748-505C287.12,852.65,225,856.37,254.87,863.51Zm93.6,45.36C347.92,898.19,338.59,913,348.47,908.87ZM1490.4,1609.13c41.49-8.39,136,21.12,151.28-11-50.37-1.25-174.23-35.58-180.1,8.14l11,1.74,17.79,1.09ZM378.23,916.38C379,883.43,352.55,915.14,378.23,916.38ZM132.12,745.62C121,682.86,89.59,736.12,132.12,745.62Zm58.67,14.75C191.55,740.2,137.08,742.24,190.79,760.37Zm33.54,16.5C214.64,769,216.78,786.74,224.33,776.87ZM435.42,912.25C445.37,903.1,411.88,905.5,435.42,912.25ZM202,739.71C196.32,692.31,134,732.6,202,739.71ZM81.64,661.6C79.94,639.75,69.91,669.85,81.64,661.6Zm17.93-13.5C96.64,622.16,84.17,651.37,99.57,648.1Zm98.88,59c41.83-16.39-76.17-34-8.55-3.07Zm1323.71,817.66C1548.93,1500.23,1488.18,1517.18,1522.16,1524.77Zm159.92,82.87C1692.82,1576,1655.05,1611.82,1682.08,1607.64ZM208.56,655.3C213,624.6,175.38,661.41,208.56,655.3ZM67.82,561c-7.55-43.32-6.51-119.39,65.79-93.7-96.49,19.18,66.82,120,46.2,40.38,40.58,2,79.39-24,58.07,15.4,80-8.79,135.39-78.14,212.64-68.4,60.16-8,125.94-14,190.78-38.25,53.3-3.83,104.62-61.22,75.42-95.25C644,315,567.91,324.12,487.58,340.12c-89,18.48-169.9,53.65-259.73,68.76-87.6,11.78,17.59,32.39-7.51,37-45.66,15.85,54.51,26.53-5.91,43.27-37.31-7.1-76.16-19.91-60.21-59.26C70.36,440.82-3.37,475.6,62.91,561l4.92,0ZM270,458.06c19.63-72.43,105.32,59.63,32.19,9.64C293.48,461.14,279.06,455.82,270,458.06Zm3.82-35.13C302.17,401.82,288.86,434.81,273.8,422.93Zm36,.61c2.6-33.34,82.53,17.63,13.17,12l-13.17-12Zm49.28-19.82C377.14,382.64,364.33,422.39,359.1,403.72Zm12.63-8.44c30-36,169.76-23,67.46-3.54-27.43-20.67-48.43,12.17-67.46,3.54Zm182.42-28.13C549.64,268.72,644.82,402.08,554.15,367.15Zm51.78-.3c18.92-49.58,73.47-19.92,8.79-10C616.1,362.18,612.78,382.5,605.93,366.85Zm-417.77,263C244.68,595.23,128.14,599.81,188.16,629.86ZM230,641.44C249.81,620.38,186.86,632.89,230,641.44Zm-123.2-87.39C139.07,529.21,68.52,544.62,106.78,554.05ZM1776.47,1598.6C1777.41,1569.78,1751.78,1611.56,1776.47,1598.6Zm-169.66-115.81C1611.62,1449.66,1585,1485.68,1606.81,1482.79Zm216.31,127c45.17.16,136.86-14.07,38.6-14C1846.27,1598.16,1771.85,1597.67,1823.12,1609.78ZM266.75,621.11c36.57-2.49,57.18-40.3-7.11-38.16-99.6-10.28,87.89,34.14-12.76,21.42C233.37,613.31,266,623.59,266.75,621.11Zm32.2,16.3C295.12,614,287.61,649.87,299,637.41Zm38.2-101.85C353,515.88,315.19,530.29,337.15,535.56ZM215.52,332.32c65.29-22.15,154.52-47.1,185.33,10.94-31.36-37.71-12.67-74.87,16.94-19.68,41.88,55.8,62.83-25.38,35.61-44.12,31.06,38.56,66.33,56.8,20.76,2.45,49.54-59.57-99.11,7.8-132.89,7.1C325,296.3,173.45,327.66,215.53,332.32Zm38.26-73.22c37.22-28.06,128.72,16.74,70-27.93C318,226.11,195.21,265.06,253.78,259.1Zm135.68,5.61c43.52,1.09-18.77-58.52,33.09-31.5-8.49-27.81-60.41-33-85.79-44.16C322.4,214.49,366,265.06,389.46,264.71ZM277.57,141.54C292.63,121.13,251.15,151.93,277.57,141.54ZM333,154.8c70.18-9.28-17.9-30.2-14.18-.73l14.17.73Zm-103.56-81C180,9.29,322.44,84.66,272.2,17.09,229.93-16.54,189.34,55,229.48,73.83ZM863.66,415.39c22.67-40.15-93.55-54.15-15.25-14.22,7.2,2.39,5.57,17,15.25,14.22Z" transform="translate(0 0)"/></svg>