<svg id="Layer_1" data-name="Layer 1" xmlns="http://www.w3.org/2000/svg" viewBox="0 0 399.88 296.93"><defs><style>.cls-1{fill:#fdfefd;}.cls-2{fill:#052c2b;}.cls-3{fill:#02c58e;}.cls-4{fill:#138876;}.cls-5{fill:#fcfcfc;}.cls-6{fill:#fcfdfd;}</style></defs><path class="cls-1" d="M226,84.26c-10.66-18.6-21.25-37.23-32-55.75-4-6.88-7-14.42-12.62-20.29C171.63-2,158.48-1.19,149.94,10a38.32,38.32,0,0,0-2.76,4.15Q76,139.18,4.9,264.25a31.86,31.86,0,0,0-3.27,8.85c-2.6,11.49,3.72,21.3,15.24,24,5.29,1.25,10.61.81,15.92.81q52.2,0,104.42-.14,54.9.08,109.81.16c22.29,0,44.59-.1,66.88-.16,21.63.05,43.27.29,64.9.06,10.94-.12,19.35-6.46,21.56-15.32,1.68-6.76-.57-12.76-3.85-18.54q-54-95.15-108-190.29c-3.69-6.49-7.09-13.24-11.56-19.18-9.75-13-24.87-12.3-34.06,1-1,1.37-1.82,2.78-2.66,4.21Q233.08,72,226,84.26Z" transform="translate(-1.05 -1.06)"/><path class="cls-2" d="M313.9,297.78c-22.29.06-44.59.17-66.88.16q-54.9,0-109.81-.16c-13.32-4.51-16.92-9.35-17.1-23,1.5-4.19,2.68-8.46,4.93-12.41q28.39-49.69,56.6-99.51c10.31-18.18,20.5-36.43,30.75-54.64l12.69-22c2.53-.24,2.78,2,3.65,3.47,3.65,6.14,7.2,12.34,10.79,18.51.27.61.48,1.24.8,1.81q38.26,67.33,76.47,134.7c5.52,9.79,12.42,18.94,15.32,30.08.17,7-1,13.37-7.14,18C321.6,295.22,317.74,296.42,313.9,297.78ZM226,132.18c-1.14,1.9-1.91,3.11-2.62,4.36l-75.47,133c-2.9,5.12-2.92,5.13,2.7,5.13H301.46c5.51,0,5.52,0,2.82-4.77q-32-56.32-64-112.63C235.63,149.08,231,140.92,226,132.18Z" transform="translate(-1.05 -1.06)"/><path class="cls-3" d="M120.11,274.73c.18,13.7,3.78,18.54,17.1,23q-52.21.08-104.42.14c-5.31,0-10.63.44-15.92-.81C5.35,294.4-1,284.59,1.63,273.1a31.86,31.86,0,0,1,3.27-8.85Q76,139.2,147.18,14.14A38.32,38.32,0,0,1,149.94,10C158.48-1.19,171.63-2,181.32,8.22c5.59,5.87,8.61,13.41,12.62,20.29C204.71,47,215.3,65.66,226,84.26l-.88,1.87-12.69,22L166.65,27.76C165.7,29.13,165,30,164.4,31Q96.59,150.43,28.79,269.85c-2.71,4.78-2.67,4.82,2.92,4.82Z" transform="translate(-1.05 -1.06)"/><path class="cls-4" d="M225.08,86.13l.88-1.87Q233.1,72,240.24,59.73c.84-1.43,1.71-2.84,2.66-4.21,9.19-13.31,24.31-14,34.06-1,4.47,5.94,7.87,12.69,11.56,19.18q54,95.13,108,190.29c3.28,5.78,5.53,11.78,3.85,18.54-2.21,8.86-10.62,15.2-21.56,15.32-21.63.23-43.27,0-64.9-.06,3.84-1.36,7.7-2.56,11.07-5.1,6.11-4.61,7.31-11,7.14-18q19,0,37.94,0c5.8,0,5.81,0,2.93-5.07L284.17,113.7l-23.93-42-20.72,36.41c-3.59-6.17-7.14-12.37-10.79-18.51C227.86,88.15,227.61,85.89,225.08,86.13Z" transform="translate(-1.05 -1.06)"/><path class="cls-1" d="M120.11,274.73l-88.4-.06c-5.59,0-5.63,0-2.92-4.82Q96.58,150.44,164.4,31c.57-1,1.3-1.9,2.25-3.27l45.74,80.41c-10.25,18.21-20.44,36.46-30.75,54.64q-28.23,49.8-56.6,99.51C122.79,266.27,121.61,270.54,120.11,274.73Z" transform="translate(-1.05 -1.06)"/><path class="cls-5" d="M226,132.18c5,8.74,9.66,16.9,14.31,25.08q32,56.31,64,112.63c2.7,4.75,2.69,4.77-2.82,4.77H150.58c-5.62,0-5.6,0-2.7-5.13l75.47-133C224.06,135.29,224.83,134.08,226,132.18Z" transform="translate(-1.05 -1.06)"/><path class="cls-6" d="M239.52,108.11,260.24,71.7l23.93,42L373,269.6c2.88,5,2.87,5.06-2.93,5.07q-19,0-37.94,0c-2.9-11.14-9.8-20.29-15.32-30.08q-38-67.45-76.47-134.7C240,109.35,239.79,108.72,239.52,108.11Z" transform="translate(-1.05 -1.06)"/></svg>